<svg xmlns="http://www.w3.org/2000/svg" width="798" height="250" viewBox="0 0 798 250">
  <path id="KOAL" d="M4.2,246.407a32.683,32.683,0,0,0,23.9-9.863,32.68,32.68,0,0,0,9.863-23.9V39.791a32.681,32.681,0,0,0-9.863-23.9A32.681,32.681,0,0,0,4.2,6.023V246.407Zm287.538,0c32.931,0,61.182-11.7,84.418-34.938q35.1-35.1,35.1-85.923,0-49.647-35.1-84.585c-23.236-23.4-51.487-35.1-84.418-35.1q-49.648,0-84.753,35.1-34.854,34.854-34.938,85.756,0,49.647,34.938,84.752Q242.092,246.323,291.74,246.407Zm1-37.278q-34.854,0-59.678-24.573c-16.383-16.55-24.574-36.275-24.574-59.511s8.191-43.129,24.574-59.511c16.549-16.549,36.442-24.74,59.678-24.74s42.961,8.191,59.51,24.74c16.55,16.382,24.741,36.275,24.741,59.511s-8.191,42.961-24.741,59.511C335.7,200.938,315.979,209.129,292.743,209.129ZM539.325,28.256C535.48,18.9,529.128,12.376,520.1,8.7L510.907,6.19l-1.839.167-1.839-.167L498.035,8.7a34.569,34.569,0,0,0-19.224,19.558L394.225,246.574h10.2c14.209,0,24.741-7.355,31.929-21.9L509.068,37.116l43.463,112.335H498.369a33.675,33.675,0,0,0-33.6,33.767H565.737l16.048,41.457c7.188,14.544,17.886,21.9,32.1,21.9h10.03ZM793.763,246.407A33.673,33.673,0,0,0,760,212.639H669.058V39.791a32.679,32.679,0,0,0-9.863-23.9,32.679,32.679,0,0,0-23.9-9.863V246.407H793.763Zm-591.3,0L92.633,126.215,202.46,6.023c-22.066,0-37.111,2.173-45.3,6.519a63.321,63.321,0,0,0-21.731,16.884L47,126.215,135.427,223a61,61,0,0,0,21.731,16.716C165.349,244.234,180.394,246.407,202.46,246.407Z"/>
</svg>
